<?xml version="1.0" encoding="UTF-8" standalone="no"?>
<!-- Created with Inkscape (http://www.inkscape.org/) -->
<svg
   xmlns:dc="http://purl.org/dc/elements/1.1/"
   xmlns:cc="http://web.resource.org/cc/"
   xmlns:rdf="http://www.w3.org/1999/02/22-rdf-syntax-ns#"
   xmlns:svg="http://www.w3.org/2000/svg"
   xmlns="http://www.w3.org/2000/svg"
   xmlns:sodipodi="http://sodipodi.sourceforge.net/DTD/sodipodi-0.dtd"
   xmlns:inkscape="http://www.inkscape.org/namespaces/inkscape"
   width="48"
   height="48"
   id="svg7100"
   sodipodi:version="0.32"
   inkscape:version="0.45"
   sodipodi:modified="true"
   version="1.0">
  <defs
     id="defs7102" />
  <sodipodi:namedview
     id="base"
     pagecolor="#ffffff"
     bordercolor="#666666"
     borderopacity="1.0"
     gridtolerance="10000"
     guidetolerance="10"
     objecttolerance="10"
     inkscape:pageopacity="0.0"
     inkscape:pageshadow="2"
     inkscape:zoom="5.9523453"
     inkscape:cx="24"
     inkscape:cy="24"
     inkscape:document-units="px"
     inkscape:current-layer="layer1"
     height="48px"
     width="48px"
     showgrid="true"
     gridspacingx="0.8px"
     gridspacingy="0.8px"
     inkscape:grid-points="true"
     inkscape:window-width="744"
     inkscape:window-height="573"
     inkscape:window-x="181"
     inkscape:window-y="29" />
  <metadata
     id="metadata7105">
    <rdf:RDF>
      <cc:Work
         rdf:about="">
        <dc:format>image/svg+xml</dc:format>
        <dc:type
           rdf:resource="http://purl.org/dc/dcmitype/StillImage" />
      </cc:Work>
    </rdf:RDF>
  </metadata>
  <g
     inkscape:label="Layer 1"
     inkscape:groupmode="layer"
     id="layer1">
    <path
       style="stroke-width:1.5;stroke-linecap:round;stroke-linejoin:round;stroke-miterlimit:4;stroke-dasharray:none"
       d="M 8,36 C 5.792,36 4,37.792 4,40 C 4,42.208 5.792,44 8,44 C 10.208,44 12,42.208 12,40 C 12,37.792 10.208,36 8,36 z M 8,38 C 9.104,38 10,38.896 10,40 C 10,41.104 9.104,42 8,42 C 6.896,42 6,41.104 6,40 C 6,38.896 6.896,38 8,38 z "
       id="path7108" />
    <path
       id="path8082"
       d="M 40,36 C 37.792,36 36,37.792 36,40 C 36,42.208 37.792,44 40,44 C 42.208,44 44,42.208 44,40 C 44,37.792 42.208,36 40,36 z M 40,38 C 41.104,38 42,38.896 42,40 C 42,41.104 41.104,42 40,42 C 38.896,42 38,41.104 38,40 C 38,38.896 38.896,38 40,38 z "
       style="stroke-width:1.5;stroke-linecap:round;stroke-linejoin:round;stroke-miterlimit:4;stroke-dasharray:none" />
    <path
       style="stroke-width:1.5;stroke-linecap:round;stroke-linejoin:round;stroke-miterlimit:4;stroke-dasharray:none"
       d="M 40,4 C 37.792,4 36,5.792 36,8 C 36,10.208 37.792,12 40,12 C 42.208,12 44,10.208 44,8 C 44,5.792 42.208,4 40,4 z M 40,6 C 41.104,6 42,6.896 42,8 C 42,9.104 41.104,10 40,10 C 38.896,10 38,9.104 38,8 C 38,6.896 38.896,6 40,6 z "
       id="path8084" />
    <path
       id="path8086"
       d="M 24,20 C 21.792,20 20,21.792 20,24 C 20,26.208 21.792,28 24,28 C 26.208,28 28,26.208 28,24 C 28,21.792 26.208,20 24,20 z M 24,22 C 25.104,22 26,22.896 26,24 C 26,25.104 25.104,26 24,26 C 22.896,26 22,25.104 22,24 C 22,22.896 22.896,22 24,22 z "
       style="stroke-width:1.5;stroke-linecap:round;stroke-linejoin:round;stroke-miterlimit:4;stroke-dasharray:none" />
  </g>
</svg>
